<svg width="15" height="9" viewBox="0 0 15 9" fill="none" xmlns="http://www.w3.org/2000/svg">
<path d="M7.5 8.25C7.32063 8.25 7.14708 8.21851 6.97937 8.15553C6.81076 8.09256 6.6704 8.00859 6.5583 7.90363L0.369955 2.10973C0.123318 1.87882 0 1.58492 0 1.22805C0 0.871182 0.123318 0.57729 0.369955 0.346374C0.616591 0.115458 0.930493 0 1.31166 0C1.69282 0 2.00673 0.115458 2.25336 0.346374L7.5 5.25859L12.7466 0.346374C12.9933 0.115458 13.3072 0 13.6883 0C14.0695 0 14.3834 0.115458 14.63 0.346374C14.8767 0.57729 15 0.871182 15 1.22805C15 1.58492 14.8767 1.87882 14.63 2.10973L8.4417 7.90363C8.30717 8.02958 8.16143 8.11859 8.00448 8.17065C7.84753 8.22355 7.67937 8.25 7.5 8.25V8.25Z" fill="#fff"/>
</svg>
