<?xml version="1.0" encoding="UTF-8"?>
<svg width="29px" height="28px" viewBox="0 0 29 28" version="1.1" xmlns="http://www.w3.org/2000/svg" xmlns:xlink="http://www.w3.org/1999/xlink">
    <!-- Generator: Sketch 55.2 (78181) - https://sketchapp.com -->
    <title>face</title>
    <desc>Created with Sketch.</desc>
    <g id="approved" stroke="none" stroke-width="1" fill="none" fill-rule="evenodd">
        <g id="04-Repjegy-footer-UI-WD" transform="translate(-889.000000, -926.000000)">
            <g id="Footer-ui" transform="translate(0.000000, -15.000000)">
                <g id="Footer" transform="translate(0.000000, 727.000000)">
                    <g id="social" transform="translate(884.000000, 184.000000)">
                        <g transform="translate(5.000000, 30.000000)" id="face">
                            <g>
                                <ellipse id="Oval" fill="#3E5C9A" cx="14.0207209" cy="14" rx="14.0207209" ry="14"></ellipse>
                                <path d="M13.0521067,14.0509534 L13.0521067,20.2989647 C13.0521067,20.3886018 13.1176198,20.4615385 13.1984397,20.4615385 L15.282001,20.4615385 C15.3631271,20.4615385 15.428334,20.3886018 15.428334,20.2989647 L15.428334,13.9490466 L16.939115,13.9490466 C17.0150367,13.9490466 17.0784068,13.8842898 17.0851418,13.8001059 L17.2299441,11.8870529 C17.2372914,11.7923034 17.1699415,11.7105053 17.0845296,11.7105053 L15.428334,11.7105053 L15.428334,10.3533386 C15.428334,10.0350076 15.6600789,9.77734363 15.9457038,9.77734363 L17.110245,9.77734363 C17.1910649,9.77734363 17.2562718,9.70440699 17.2562718,9.61442909 L17.2562718,7.70137608 C17.2562718,7.61139818 17.1910649,7.53846154 17.110245,7.53846154 L15.142403,7.53846154 C13.9882705,7.53846154 13.0521067,8.58070563 13.0521067,9.86595824 L13.0521067,11.7105053 L12.0100199,11.7105053 C11.9295061,11.7105053 11.8636869,11.783442 11.8636869,11.8734199 L11.8636869,13.7864729 C11.8636869,13.8764508 11.9295061,13.9490466 12.0100199,13.9490466 L13.0521067,13.9490466 L13.0521067,14.0509534 Z" id="Fill-6" fill="#FFFFFF"></path>
                            </g>
                        </g>
                    </g>
                </g>
            </g>
        </g>
    </g>
</svg>