<?xml version="1.0" encoding="UTF-8"?>
<svg width="29px" height="28px" viewBox="0 0 29 28" version="1.1" xmlns="http://www.w3.org/2000/svg" xmlns:xlink="http://www.w3.org/1999/xlink">
    <!-- Generator: Sketch 55.2 (78181) - https://sketchapp.com -->
    <title>instagram</title>
    <desc>Created with Sketch.</desc>
    <defs>
        <linearGradient x1="0%" y1="99.8523218%" x2="100%" y2="-6.73376916%" id="linearGradient-1">
            <stop stop-color="#F5EC53" offset="0%"></stop>
            <stop stop-color="#E48244" offset="29.827386%"></stop>
            <stop stop-color="#C84278" offset="62.220228%"></stop>
            <stop stop-color="#192CFA" offset="100%"></stop>
        </linearGradient>
    </defs>
    <g id="approved" stroke="none" stroke-width="1" fill="none" fill-rule="evenodd">
        <g id="04-Repjegy-footer-UI-WD" transform="translate(-965.000000, -926.000000)">
            <g id="Footer-ui" transform="translate(0.000000, -15.000000)">
                <g id="Footer" transform="translate(0.000000, 727.000000)">
                    <g id="social" transform="translate(884.000000, 184.000000)">
                        <g transform="translate(5.000000, 30.000000)" id="instagram">
                            <g transform="translate(76.000000, 0.000000)">
                                <ellipse id="Oval-Copy-8" fill="url(#linearGradient-1)" cx="14.0207209" cy="14" rx="14.0207209" ry="14"></ellipse>
                                <path d="M19.2291769,16.5629734 C19.2291769,18.0198003 18.0461363,19.2007586 16.5874876,19.2007586 L11.4542886,19.2007586 C9.99530546,19.2007586 8.81193033,18.0198003 8.81193033,16.5629734 L8.81193033,11.4370266 C8.81193033,9.98019967 9.99530546,8.79924139 11.4542886,8.79924139 L16.5874876,8.79924139 C18.0461363,8.79924139 19.2291769,9.98019967 19.2291769,11.4370266 L19.2291769,16.5629734 Z M20.4918228,11.3792478 C20.4918228,9.25813185 18.7696073,7.53846154 16.6450174,7.53846154 L11.3960898,7.53846154 C9.27149998,7.53846154 7.54961893,9.25813185 7.54961893,11.3792478 L7.54961893,16.6207522 C7.54961893,18.7418681 9.27149998,20.4615385 11.3960898,20.4615385 L16.6450174,20.4615385 C18.7696073,20.4615385 20.4918228,18.7418681 20.4918228,16.6207522 L20.4918228,11.3792478 Z M16.1289214,13.9088231 C16.1289214,12.796665 15.2224922,11.8919093 14.108688,11.8919093 C12.9948838,11.8919093 12.0884546,12.796665 12.0884546,13.9088231 C12.0884546,15.0213152 12.9948838,15.9260708 14.108688,15.9260708 C15.2224922,15.9260708 16.1289214,15.0213152 16.1289214,13.9088231 L16.1289214,13.9088231 Z M17.2624596,13.9088231 C17.2624596,15.6451925 15.8476273,17.0579338 14.108688,17.0579338 C12.3697487,17.0579338 10.9552508,15.6451925 10.9552508,13.9088231 C10.9552508,12.1727877 12.3697487,10.7600463 14.108688,10.7600463 C15.8476273,10.7600463 17.2624596,12.1727877 17.2624596,13.9088231 L17.2624596,13.9088231 Z M18.1973193,10.5483021 C18.1973193,10.962105 17.8608367,11.2980903 17.4464213,11.2980903 C17.0320059,11.2980903 16.6958577,10.962105 16.6958577,10.5483021 C16.6958577,10.1341651 17.0320059,9.79884776 17.4464213,9.79884776 C17.8608367,9.79884776 18.1973193,10.1341651 18.1973193,10.5483021 L18.1973193,10.5483021 Z" id="Fill-18" fill="#FFFFFF"></path>
                            </g>
                        </g>
                    </g>
                </g>
            </g>
        </g>
    </g>
</svg>