<?xml version="1.0" encoding="UTF-8"?>
<svg width="54px" height="27px" viewBox="0 0 54 27" version="1.1" xmlns="http://www.w3.org/2000/svg" xmlns:xlink="http://www.w3.org/1999/xlink">
    <!-- Generator: Sketch 55.2 (78181) - https://sketchapp.com -->
    <title>payu_logo_gradient_cmyk</title>
    <desc>Created with Sketch.</desc>
    <defs>
        <linearGradient x1="50.0008873%" y1="21.1049861%" x2="50.0008873%" y2="122.832779%" id="linearGradient-1">
            <stop stop-color="#BBCE00" offset="0%"></stop>
            <stop stop-color="#428E29" offset="100%"></stop>
        </linearGradient>
    </defs>
    <g id="approved" stroke="none" stroke-width="1" fill="none" fill-rule="evenodd">
        <g id="04-Repjegy-footer-UI-WD" transform="translate(-1051.000000, -786.000000)" fill-rule="nonzero">
            <g id="Footer-ui" transform="translate(0.000000, -15.000000)">
                <g id="Footer" transform="translate(0.000000, 727.000000)">
                    <g id="Pay_options" transform="translate(652.000000, 74.000000)">
                        <g id="payu_logo_gradient_cmyk" transform="translate(399.067059, 0.000000)">
                            <g id="Layer_1">
                                <path d="M52.6362557,5.65101996 L50.2938957,5.65101996 C50.0374997,5.65101996 49.8305516,5.44429764 49.8305516,5.18818149 L49.8305516,2.81910708 C49.8305516,2.56299093 50.0374997,2.3562686 50.2938957,2.3562686 L52.6362557,2.3562686 C52.8926517,2.3562686 53.0995998,2.56299093 53.0995998,2.81910708 L53.0995998,5.18818149 C53.0995998,5.44429764 52.8908203,5.65101996 52.6362557,5.65101996 Z" id="Path" fill="#BBCE00"></path>
                                <path d="M49.5137194,2.3562686 L47.9222332,2.3562686 C47.7482502,2.3562686 47.6072325,2.21540472 47.6072325,2.04161162 L47.6072325,0.431738657 C47.6072325,0.257945554 47.7482502,0.11708167 47.9222332,0.11708167 L49.5137194,0.11708167 C49.6877024,0.11708167 49.8287202,0.257945554 49.8287202,0.431738657 L49.8287202,2.04161162 C49.8287202,2.21540472 49.6877024,2.3562686 49.5137194,2.3562686 Z" id="Path" fill="#BBCE00"></path>
                                <path d="M6.17364803,6.70658439 L2.76541339,6.70658439 C0.945002191,6.70658439 0.131860771,7.51700907 0.131860771,9.33726316 L0.131860771,21.0216479 C0.131860771,21.7241379 0.357122921,21.9491543 1.06038037,21.9491543 L1.29113671,21.9491543 C1.99439416,21.9491543 2.21965631,21.7241379 2.21965631,21.0216479 L2.21965631,16.4755862 L6.17181663,16.4755862 C9.68077826,16.4755862 11.3143882,14.9242541 11.3143882,11.5910853 C11.3162181,8.25974592 9.68260966,6.70658439 6.17364803,6.70658439 Z M9.22659116,11.5910853 C9.22659116,13.4954918 8.73943886,14.527274 6.17181663,14.527274 L2.22148771,14.527274 L2.22148771,9.61350272 C2.22148771,8.93296552 2.47422085,8.67867877 3.1573329,8.67867877 L6.17364803,8.67867877 C8.107606,8.67867877 9.22659116,9.15432305 9.22659116,11.5910853 Z M15.7060829,10.0580472 C14.3563414,10.0580472 13.5084034,10.2263521 13.1879085,10.2922105 C12.6201746,10.4147804 12.3820927,10.5721089 12.3820927,11.2178875 L12.3820927,11.402657 C12.3820927,11.6551143 12.4187206,11.8307368 12.4993022,11.9533067 C12.5927036,12.0978294 12.7447098,12.169176 12.9479951,12.169176 C13.0468907,12.169176 13.1622689,12.1527114 13.2996239,12.1179528 C13.6237816,12.0374592 14.6621852,11.8691543 15.7958215,11.8691543 C17.8341692,11.8691543 18.6656247,12.4326098 18.6656247,13.815637 L18.6656247,15.0486534 L16.0943396,15.0486534 C12.7904948,15.0486534 11.2502877,16.1627586 11.2502877,18.5519564 C11.2502877,20.871637 12.8399426,22.148559 15.7243969,22.148559 C19.152777,22.148559 20.6820095,20.9832305 20.6820095,18.3690163 L20.6820095,13.815637 C20.6874898,11.2855753 19.0575442,10.0580472 15.7060829,10.0580472 Z M18.6674561,16.6969437 L18.6674561,18.2994991 C18.6674561,19.6056915 18.1821352,20.3612341 15.7060829,20.3612341 C14.0688117,20.3612341 13.2739843,19.7703376 13.2739843,18.5519564 C13.2739843,17.2164936 14.0724745,16.6969437 16.1199792,16.6969437 L18.6674561,16.6969437 L18.6674561,16.6969437 Z M32.0330103,11.3331397 L29.3848065,21.9143956 C28.6082931,25.0170599 27.2823598,26.3488639 24.8063075,26.5098512 C24.7422085,26.5153394 24.6817723,26.5189982 24.6249989,26.5189982 C24.0920617,26.5189982 23.9235729,26.2244646 23.8246773,25.7506497 L23.7788923,25.5457568 C23.7331073,25.3298875 23.7056363,25.0865771 23.8320029,24.9182722 C23.9547067,24.7554555 24.1726432,24.7078911 24.5096208,24.6786207 C26.1670374,24.5084864 26.7292771,23.7419673 27.2823598,22.0058657 C27.0204696,22.093677 26.7054689,22.1412414 26.36666,22.1412414 C24.5444174,22.1412414 24.0572651,20.8734664 23.6470316,19.3422577 L21.4603404,11.3386279 C21.3870845,11.0678766 21.3394681,10.7898076 21.4804858,10.6050381 C21.6215036,10.4202686 21.8980449,10.394657 22.1764177,10.394657 L22.361389,10.394657 C23.0499953,10.394657 23.3137168,10.5977205 23.493194,11.2617931 L25.6579083,19.1959056 C25.9381125,20.1856116 26.2183166,20.3539165 26.921574,20.3539165 C27.4948021,20.3539165 27.8299482,20.1764646 28.0680302,19.2013938 L29.97818,11.2672813 C30.1301861,10.6086969 30.3994019,10.3964864 31.0880081,10.3964864 L31.2949563,10.3964864 C31.5714976,10.3964864 31.8462075,10.422098 31.9908881,10.6050381 C32.1337373,10.7843194 32.0952779,11.060559 32.0330103,11.3331397 Z M47.6017383,8.24145191 L47.6017383,11.2928929 L47.6017383,14.5034918 L47.6017383,16.2633757 C47.6017383,17.5531034 47.3105457,18.6470853 46.7464746,19.5270272 C45.6586233,21.2338584 43.5525138,22.1430708 40.5581754,22.1430708 C40.5545126,22.1430708 40.5508498,22.1430708 40.547187,22.1430708 C40.5435242,22.1430708 40.5398614,22.1430708 40.5361986,22.1430708 C37.5418603,22.1430708 35.4357508,21.2338584 34.3478994,19.5270272 C33.7856597,18.6470853 33.4926358,17.5531034 33.4926358,16.2633757 L33.4926358,14.5034918 L33.4926358,11.2928929 L33.4926358,8.24145191 C33.4926358,6.94623593 34.0219103,6.71024319 35.4467391,6.71024319 L35.895432,6.71024319 C37.3202609,6.71024319 37.8495354,6.94440653 37.8495354,8.24145191 L37.8495354,11.2745989 C37.8495354,11.2819165 37.8513668,11.2874047 37.8513668,11.2947223 L37.8513668,11.9587949 C37.8513668,11.9825771 37.8531982,12.0027005 37.8531982,12.0264828 L37.8531982,16.2633757 C37.8531982,16.7810962 37.9539252,17.1945408 38.1590419,17.514686 C38.5472987,18.1110708 39.3164865,18.3836515 40.5453556,18.3854809 C41.7760561,18.3836515 42.545244,18.1129002 42.9335007,17.514686 C43.1404488,17.1945408 43.2393444,16.7829256 43.2393444,16.2652051 L43.2393444,12.0283122 C43.2393444,12.0045299 43.2411758,11.9825771 43.2411758,11.9606243 L43.2411758,11.2965517 C43.2411758,11.2892341 43.2411758,11.2837459 43.2430072,11.2764283 L43.2430072,8.24145191 C43.2430072,6.94623593 43.7722817,6.71024319 45.1971106,6.71024319 L45.6458035,6.71024319 C47.0724638,6.71024319 47.6017383,6.94440653 47.6017383,8.24145191 Z" id="Shape" fill="url(#linearGradient-1)"></path>
                                <path d="M49.2042129,10.0836588 L46.0487114,10.0818294 C45.7044083,10.0818294 45.4260355,9.80376044 45.4260355,9.45983303 L45.4278669,6.26935753 C45.4278669,5.92543013 45.7062397,5.64736116 46.0505428,5.64736116 L49.2060443,5.64919056 C49.5503474,5.64919056 49.8287202,5.92725953 49.8287202,6.27118693 L49.8268888,9.46166243 C49.8287202,9.80558984 49.548516,10.0836588 49.2042129,10.0836588 Z" id="Path" fill="#BBCE00"></path>
                            </g>
                        </g>
                    </g>
                </g>
            </g>
        </g>
    </g>
</svg>