<svg xmlns="http://www.w3.org/2000/svg" xmlns:xlink="http://www.w3.org/1999/xlink" version="1.1" width="1000" height="1000" viewBox="0 0 1000 1000" xml:space="preserve">
<desc>Created with Fabric.js 3.5.0</desc>
<defs>
</defs>
<rect x="0" y="0" width="100%" height="100%" fill="rgba(255,255,255,0)"/>
<g transform="matrix(0 1.1362 -1.1362 0 500.0087 499.9914)" id="874565">
<path style="stroke: none; stroke-width: 1; stroke-dasharray: none; stroke-linecap: butt; stroke-dashoffset: 0; stroke-linejoin: miter; stroke-miterlimit: 4; is-custom-font: none; font-file-url: none; fill: rgb(255,255,255); fill-rule: nonzero; opacity: 1;" vector-effect="non-scaling-stroke" transform=" translate(-511.9982, -512.05)" d="M 877.1 238.7 L 770.6 132.3 c -13 -13 -30.4 -20.3 -48.8 -20.3 s -35.8 7.2 -48.8 20.3 L 558.3 246.8 c -13 13 -20.3 30.5 -20.3 48.9 c 0 18.5 7.2 35.8 20.3 48.9 l 89.6 89.7 a 405.46 405.46 0 0 1 -86.4 127.3 c -36.7 36.9 -79.6 66 -127.2 86.6 l -89.6 -89.7 c -13 -13 -30.4 -20.3 -48.8 -20.3 a 68.2 68.2 0 0 0 -48.8 20.3 L 132.3 673 c -13 13 -20.3 30.5 -20.3 48.9 c 0 18.5 7.2 35.8 20.3 48.9 l 106.4 106.4 c 22.2 22.2 52.8 34.9 84.2 34.9 c 6.5 0 12.8 -0.5 19.2 -1.6 c 132.4 -21.8 263.8 -92.3 369.9 -198.3 C 818 606 888.4 474.6 910.4 342.1 c 6.3 -37.6 -6.3 -76.3 -33.3 -103.4 z m -37.6 91.5 c -19.5 117.9 -82.9 235.5 -178.4 331 s -213 158.9 -330.9 178.4 c -14.8 2.5 -30 -2.5 -40.8 -13.2 L 184.9 721.9 L 295.7 611 l 119.8 120 l 0.9 0.9 l 21.6 -8 a 481.29 481.29 0 0 0 285.7 -285.8 l 8 -21.6 l -120.8 -120.7 l 110.8 -110.9 l 104.5 104.5 c 10.8 10.8 15.8 26 13.3 40.8 z" stroke-linecap="round"/>
</g>
</svg>